<?xml version="1.0" encoding="utf-8"?><!-- Uploaded to: SVG Repo, www.svgrepo.com, Generator: SVG Repo Mixer Tools -->
<svg width="800px" height="800px" viewBox="0 0 24 24" xmlns="http://www.w3.org/2000/svg" id="tag-add" class="icon glyph"><path d="M19,9v4.27A2,2,0,0,0,16,15v1H15a2,2,0,0,0,0,4h1v1a2,2,0,0,0,.27,1H7a2,2,0,0,1-2-2V9a1,1,0,0,1,.29-.71l6-6a1,1,0,0,1,1.42,0l6,6A1,1,0,0,1,19,9Zm2,8H19V15a1,1,0,0,0-2,0v2H15a1,1,0,0,0,0,2h2v2a1,1,0,0,0,2,0V19h2a1,1,0,0,0,0-2Z" style="fill:#231f20"></path></svg>